<?xml version="1.0" encoding="UTF-8"?><!DOCTYPE svg PUBLIC "-//W3C//DTD SVG 1.1//EN" "http://www.w3.org/Graphics/SVG/1.1/DTD/svg11.dtd"><svg xmlns="http://www.w3.org/2000/svg" xmlns:xlink="http://www.w3.org/1999/xlink" height="901" viewBox="0 0 280 901" width="280"><svg height="49.4" viewBox="0 0 260 50" width="259.7" x="10" y="10"><path fill="#FFB62B" d="M13.9,42.6h8v-10H8.1L13.9,42.6z M5.8,28.6h16.1v-10H0L5.8,28.6z M224.9,33.6v9h21l5.8-10h-18.4 C229.9,33.4,226.7,33.6,224.9,33.6z M245.9,18.6c-0.5,4.6-2.3,7.8-4.7,10h12.8l5.8-10H245.9z"/><g fill="#FFB62B"><path d="M59.4,27.1V10.4h-0.1l-0.5,3.8l-7,34.4h-8.3l-7-34.4l-0.5-3.8h-0.1v16.7l-9.5-6.2V0h14.8l6.4,36.4L54.1,0 h14.8v20.8L59.4,27.1z M35.9,48.6h-9.5V23.8l9.5,6.2V48.6z"/><path d="M68.9,48.6h-9.5V30l9.5-6.2V48.6z"/><path d="M91.8,22.6c0-6.1-2.6-9.6-5.9-11.1c0.5-0.1,1.5-0.1,2.3-0.1c8.6,0,13.8,3,13.7,12.9l-0.1,12.5 c0,4.6-0.1,8.4,0.5,11.7h-9.2l-0.3-4.7c-1.6,3.8-4.7,5.5-9.1,5.5c-5.8,0-9.7-3.6-9.7-10.1v-0.7c0-5.9,4.2-8.3,12.5-11.5l3.1-1.2 l0.1,5.4l-0.9,0.3c-3.6,1.4-4.7,2.9-4.7,5.8v0.9c0,2.7,0.8,4.8,3.4,4.8c3.1,0,4.4-2.4,4.4-8.6L91.8,22.6z"/><path d="M87.8,17.7c-3.1,0-4.1,2-4.1,5.7V24h-9.1v-0.6c0-5.2,3-9.4,8.3-11.2c2.8,0.9,5.1,3.1,5.6,5.5H87.8z"/><path d="M128.5,29l9,19.6h-9.8l-5.2-11.3L128.5,29z"/><path d="M117.8,39.7v8.8h-10.3V0h10.3v26.7l10-14.2h9.4L117.8,39.7z"/><path d="M153.2,17.8c-3.6,0-4.8,2.2-4.8,7.5v0.6h9.5v-0.9c0-6.5-2.3-11.5-6.4-13.6c0.5-0.1,0.9-0.1,1.4-0.1 c10.9,0,14.4,5.8,14.4,18.1v1.9h-19v4c0,7.9,2.5,11.9,6.3,13.9c-0.5,0.1-1.2,0.1-2,0.1c-10,0-14.5-5.8-14.5-16.1v-6 c0-8.8,3.5-14,10-15.4c2.5,0.8,5.2,3.1,6,5.9H153.2z M166.9,36.7v-0.3h-9.6v0.3c0,4.8-1.7,6.1-4.4,6.1h-0.9 c0.5,2.9,3.4,5.3,5.6,6.1C162.2,47.8,166.9,44.6,166.9,36.7z"/><path d="M172.2,29.4V0h10.7v29.4c0,8.6-0.3,12.6,5.4,12.6h0.7c-0.8,3.3-3.6,5.6-6.8,7 C173.9,47.7,172.2,42.5,172.2,29.4z"/><path d="M193.1,31.2V0h10.7v28.9c0,16-2.3,20.5-15.8,20.5c-0.8,0-1.5,0-2.2-0.1C189.6,47.4,193.2,43.1,193.1,31.2z"/><path d="M219.4,0h4.8c10.5,0,17.5,2.1,17.5,14.5s-7,14.9-17.5,14.9H221v19.2h-10.7V0h6.1l4.6,7.1v15.1h1.8 c6,0,7.5-1,7.5-7.5s-1.7-7.4-6.4-7.6L219.4,0z"/></g></svg><svg height="65.5" viewBox="0 0 154 66" width="154" x="10" y="70"><path fill="#898989" d="M98.5,24.6h7.7c0.3-5-1.6-14.6-13.9-14.6c-9,0-15.5,5.4-15.5,16.6c0,1.5,0.1,9.4,0.1,14.3	c0,12.2,8.4,14.8,16.4,14.8c3.4,0,8.8-0.6,12.4-4.7V32.3H91.7v7.4H98v8C93.3,49.2,85,49.8,85,39c0-5.7,0-6.8,0-12.4	c0-7,2.8-9.6,6.6-9.6C95.7,17,98.5,19,98.5,24.6z"/><path fill="#898989" d="M120.7,55.1h-7.8V10.6h7.8V55.1z M120.7,55.1h-7.8V10.6h7.8V55.1z"/><path fill="#898989" d="M154,43.4c0-17.4-19.7-11.6-19.7-21.3c0-2.9,1.9-5.2,5.3-5.2c4.1,0,6.6,2.6,6.1,7.8h7.6	c0.6-5.1-1.3-14.6-13.4-14.6c-7.5,0-13.6,3.7-13.6,11.8c0,16.8,19.7,11.3,19.5,21.5c-0.1,3.7-2.8,5.5-6.2,5.5	c-3.7,0-6.7-2.3-6.2-8.7h-7.6c-0.6,9.1,3.4,15.6,14.1,15.6C149,55.7,154,50.8,154,43.4z"/><path fill="#898989" d="M59.7,14.2c1.5,2.3,2.3,5,2.3,8.1c0,11.8-12,20.9-19,26.9h18c2.8-4.8,4.4-10.5,4.4-16.5 C65.5,25.8,63.3,19.5,59.7,14.2z M29.7,51.4c14.1-12.2,22.7-20.5,22.7-28.5c0-3-1.1-6.7-6.2-6.7c-4,0-7.9,2.3-7.2,12.1h-8.2 C28.7,17,34.8,8,46.6,8c5.9,0,10.4,2.3,13,6C53.7,5.6,43.9,0,32.7,0C14.7,0,0,14.7,0,32.7c0,18.1,14.7,32.7,32.7,32.7 c7.8,0,14.9-2.7,20.5-7.2H29.8L29.7,51.4z"/></svg><svg height="48" viewBox="0 0 48 48" width="48" x="10" y="146"><path fill="#FFB62B" d="M6.1,24l5.8-11.6c0.2-0.3,0.1-0.7,0-1C11.7,11.2,11.3,11,11,11H7c-0.4,0-0.7,0.2-0.9,0.6l-6,12	c-0.1,0.3-0.1,0.6,0,0.9l6,12C6.3,36.8,6.6,37,7,37h4c0,0,0,0,0,0c0.6,0,1-0.4,1-1c0-0.2-0.1-0.4-0.2-0.6L6.1,24z M7.6,35L2.1,24	l5.5-11h1.8L4.1,23.6c-0.1,0.3-0.1,0.6,0,0.9L9.4,35H7.6z"/><path fill="#FFB62B" d="M47.9,23.6l-6-12C41.7,11.2,41.4,11,41,11h-4c-0.3,0-0.7,0.2-0.9,0.5c-0.2,0.3-0.2,0.7,0,1L41.9,24	l-5.8,11.6c-0.2,0.3-0.1,0.7,0,1c0.2,0.3,0.5,0.5,0.9,0.5h4c0.4,0,0.7-0.2,0.9-0.6l6-12C48,24.2,48,23.8,47.9,23.6z M40.4,35h-1.8	l5.3-10.6c0.1-0.3,0.1-0.6,0-0.9L38.6,13h1.8l5.5,11L40.4,35z"/><path fill="#FFB62B" d="M33,0.3C32.4,0.1,31.7,0,31.1,0c-1.6,0-2.8,0.7-3.2,1.9l-2.3,6.2c0,0,0,0,0,0l0,0L15,37.2c0,0,0,0,0,0	c-0.1,0.4-0.1,0.8-0.1,1.2L15,47c0,0.4,0.3,0.8,0.7,0.9c0.1,0,0.2,0.1,0.3,0.1c0.3,0,0.6-0.1,0.8-0.3l5.5-6.4	c0.4-0.3,0.7-0.7,0.8-1.1c0,0,0,0,0,0L35.9,4.8C36.5,3.2,35.1,1.1,33,0.3z M29.7,2.6c0.2-0.5,1.5-0.7,2.6-0.3	c1.3,0.5,1.9,1.5,1.8,1.9c0,0.1-0.3,0.3-0.8,0.4c-0.6,0.1-1.2,0.1-1.8-0.1c-0.5-0.2-1.1,0.1-1.3,0.6c-0.2,0.5,0.1,1.1,0.6,1.3	c0.5,0.2,1.2,0.3,1.8,0.3c0.2,0,0.4,0,0.6,0l-1.4,3.7c0,0,0,0,0,0c0,0.1-0.3,0.3-0.8,0.4c-0.6,0.1-1.2,0.1-1.8-0.1	c-1.1-0.4-1.8-1.6-1.8-1.9L29.7,2.6z M26.6,11.2c0.6,0.6,1.2,1.1,2,1.4c0.5,0.2,1.1,0.3,1.7,0.3c0.2,0,0.4,0,0.6,0l-9.6,26.4	l-0.4,0.4c-0.1,0.1-0.2,0.1-0.4,0.2c-0.3,0.1-1,0.2-1.9-0.1c-1-0.4-1.5-1.1-1.7-1.6l0-0.5L26.6,11.2z M16.9,41.2	c0.3,0.2,0.6,0.4,1,0.5c0.3,0.1,0.7,0.2,1.1,0.3l-2,2.4L16.9,41.2z"/></svg><svg height="33" viewBox="0 0 48 33" width="48" x="10" y="204"><path fill="#2E3235" d="M6.4,17.1L18.9,4.7c1-1,1-2.7,0-3.7c-1-1-2.7-1-3.7,0L0.8,15.4C0.2,15.9,0,16.6,0,17.4 c0,0.7,0.4,1.4,0.9,1.9l15.2,13.1c0.5,0.4,1.1,0.6,1.7,0.6c0.7,0,1.5-0.3,2-0.9c0.9-1.1,0.8-2.7-0.3-3.7L6.4,17.1z M47.1,14.3 L31.9,0.7c-1.1-1-2.7-0.9-3.7,0.2c-1,1.1-0.9,2.7,0.2,3.7l13.1,11.7l-12.4,12c-1,1-1.1,2.6-0.1,3.7c0.5,0.5,1.2,0.8,1.9,0.8 c0.7,0,1.3-0.2,1.8-0.7l14.4-13.9c0.5-0.5,0.8-1.2,0.8-1.9C48,15.4,47.7,14.7,47.1,14.3z"/></svg><svg height="46" viewBox="0 0 47 46" width="47" x="10" y="247"><path fill="#2E3235" d="M23.5,5.2l3,2.9c-0.1,0.1-0.3,0.2-0.4,0.4c-1.7,1.7-2.6,3.9-2.6,6.2c0,2.4,0.9,4.6,2.6,6.2	c1.7,1.6,4,2.6,6.4,2.6c2.4,0,4.7-0.9,6.4-2.6c0.1-0.1,0.3-0.3,0.4-0.4l2.4,2.3L23.5,40.7L5.3,23l4.9-4.8c1.1-1.1,1.5-2.6,1.1-4	c-0.4-1.4-1.6-2.5-3.1-2.9c-0.3-0.1-0.6-0.3-0.9-0.5c-0.4-0.4-0.6-0.9-0.6-1.5c0-0.5,0.2-1.1,0.6-1.5c0.4-0.4,0.9-0.6,1.5-0.6	c0.6,0,1.1,0.2,1.5,0.6c0.3,0.3,0.5,0.6,0.6,0.9c0.4,1.5,1.5,2.6,3,3c0.4,0.1,0.8,0.2,1.1,0.2c1.1,0,2.2-0.4,3-1.2L23.5,5.2 M23.5,0	c-0.4,0-0.8,0.1-1.1,0.4L15,7.7c-0.3-1.1-0.8-2-1.7-2.9C12.1,3.6,10.5,3,8.8,3C7.1,3,5.5,3.6,4.3,4.8C3.1,6,2.5,7.6,2.5,9.2	c0,1.7,0.7,3.2,1.9,4.4c0.8,0.8,1.8,1.4,2.9,1.6l-6.8,6.6C0.2,22.2,0,22.6,0,23c0,0.4,0.2,0.8,0.5,1.1l22,21.5	c0.3,0.3,0.7,0.5,1.1,0.5c0.4,0,0.8-0.2,1-0.5l22-21.5c0.3-0.3,0.5-0.7,0.5-1.1c0-0.4-0.2-0.8-0.5-1.1l-7.9-7.7	c-0.1-0.1-0.3-0.2-0.5-0.2c-0.1,0-0.2,0-0.3,0.1c-0.3,0.2-0.5,0.4-0.5,0.7c0,1.3-0.5,2.5-1.4,3.4c-0.9,0.9-2.1,1.4-3.4,1.4	c-1.3,0-2.5-0.5-3.4-1.4c-0.9-0.9-1.4-2-1.4-3.3c0-1.3,0.5-2.5,1.4-3.3c0.9-0.9,2.1-1.4,3.4-1.4h0.1c0.4,0,0.6-0.2,0.7-0.5	c0.1-0.3,0.1-0.6-0.2-0.8l-8.5-8.3C24.3,0.1,23.9,0,23.5,0L23.5,0z"/></svg><svg height="43.1" viewBox="0 0 42 44" width="41.7" x="10" y="303"><path fill="#2E3235" d="M1,37.5c-1.3,1.3-1.3,3.4,0,4.6c1.3,1.3,3.4,1.3,4.7,0l22.2-21.5l-4.7-4.6L1,37.5z M38,11.7l2.3-5.9 l-6.2,1.8l-5.5-4.2v6l-5,3.9l6.1,2.1l1.7,6.1l3.9-5l6.4-0.1L38,11.7z M20.2,9l2-2.5l3.2,0.2l-1.8-2.6l1.2-2.9L21.8,2l-2.5-2 l-0.1,3.2l-2.8,1.7l3,1.1L20.2,9z"/></svg><svg height="40" viewBox="0 0 43 40" width="43" x="10" y="357"><path fill="#2E3235" d="M11,15.9c1,1,2.4,4.2,2.4,4.5c0,0,1,0,4.1-2.9c3.1-3,3.3-4.2,3.3-4.2c-0.3-0.1-3.8-1.6-4.8-2.6 c-1.3-1.3-1.8-3-1.6-4.6L9,0.5c-0.7-0.7-1.8-0.7-2.4,0l-6,5.8c-0.7,0.7-0.7,1.7,0,2.4L6,14.2C7.8,14,9.7,14.5,11,15.9z M24.9,26.4 L38.5,40l2.3-2.2L27.2,24.1L24.9,26.4z M42.3,6.1c0,0-4.5,4.4-5.6,5.5c-1.1,1.1-2.1,0.2-3.8-1.4c-1.6-1.6-2.6-2.6-1.5-3.7 C32.6,5.4,37.1,1,37.1,1s-0.7-0.7-1.7-0.7c-1.4,0.1-2.9,0.6-4.3,1.4c-2.4,1.3-4.8,3.1-5.6,4.8c-0.7,1.5-0.3,3.8,0,5.2l0,0 c0,0,0.4,1.1-0.4,1.8L4,33.9c-1.2,1.2-1.2,3.2,0,4.4c1.2,1.2,3.3,1.2,4.5,0l21.1-20.5c0.5-0.5,1.1-0.5,1.5-0.4 c1.6,0.5,4.2,0.8,5.7,0.1c1.7-0.8,3.3-2.7,4.9-5.5c0.8-1.4,1.3-2.9,1.4-4.3C43.1,6.8,42.3,6.1,42.3,6.1z"/></svg><svg height="39" viewBox="-276 402 42 39" width="42" x="10" y="407"><path fill="#fff" d="M-246,410.9v-9h-29.9l-0.1,30h12v9h30v-30H-246z M-273,428.9v-24h24v6h-14.9v18H-273z M-237,437.9h-24v-6h15	v-18h9V437.9z"/></svg><svg height="39" viewBox="-276 402 42 39" width="42" x="10" y="456"><path fill="#FAB531" d="M-273,410.9h-2.9v3h3v-3H-273z M-273,416.9h-3v3h3V416.9z M-273,422.9h-3v3h3V422.9z M-275.9,407.9h2.9v-3 h3v-3h-5.9V407.9z M-246,401.9h-3v6h3V401.9z M-252,401.9h-3v3h3V401.9z M-276,431.9h6v-3h-6V431.9z M-264,401.9h-3v3h3V401.9z M-258,401.9h-3v3h3V401.9z M-258,431.9h3v-3h-3V431.9z M-249,428.9h-3v3h6v-6h-3V428.9z M-249,422.9h3v-3h-3V422.9z M-246,410.9 L-246,410.9h-3l0,0h-14.9v18h-3.1v3h3v9h30v-30H-246z M-237,437.9h-24v-24h12v3h3v-3h9V437.9z"/></svg><svg height="39" viewBox="-276 402 42 39" width="42" x="10" y="505"><path fill="#fff" d="M-273,410.9h-2.9v3h3v-3H-273z M-273,416.9h-3v3h3V416.9z M-273,422.9h-3v3h3V422.9z M-275.9,407.9h2.9v-3 h3v-3h-5.9V407.9z M-246,401.9h-3v6h3V401.9z M-252,401.9h-3v3h3V401.9z M-276,431.9h6v-3h-6V431.9z M-264,401.9h-3v3h3V401.9z M-258,401.9h-3v3h3V401.9z M-258,431.9h3v-3h-3V431.9z M-249,428.9h-3v3h6v-6h-3V428.9z M-249,422.9h3v-3h-3V422.9z M-246,410.9 L-246,410.9h-3l0,0h-14.9v18h-3.1v3h3v9h30v-30H-246z M-237,437.9h-24v-24h12v3h3v-3h9V437.9z"/></svg><svg height="39" viewBox="-276 402 42 39" width="42" x="10" y="554"><path fill="#FAB531" d="M-246,410.9v-9h-29.9l-0.1,30h12v9h30v-30H-246z M-273,428.9v-24h24v6h-14.9v18H-273z M-237,437.9h-24v-6h15	v-18h9V437.9z"/></svg><svg height="39" viewBox="-276 402 42 39" width="42" x="10" y="603"><path fill="#FAB531" d="M-246,401.9h-29.9l-0.1,30h12l0,0h3l0,0h15v-18h3v-3h-3V401.9z M-249,428.9h-12v-3h-3v3h-9v-24h24V428.9z M-252,440.9h3v-3h-3V440.9z M-264,440.9h3v-6h-3V440.9z M-258,440.9h3v-3h-3V440.9z M-261,419.9h-2.9v3h2.9V419.9z M-246,440.9h3 v-3h-3V440.9z M-261,413.9h3v-3h-5.9v6h2.9V413.9z M-252,410.9h-3v3h3V410.9z M-237,419.9h3v-3h-3V419.9z M-240,410.9v3h6v-3H-240 z M-237,431.9h3v-3h-3V431.9z M-237,425.9h3v-3h-3V425.9z M-237,437.9h-3v3h6v-6h-3V437.9z"/></svg><svg height="39" viewBox="-276 402 42 39" width="42" x="10" y="652"><path fill="#fff" d="M-246,401.9h-29.9l-0.1,30h12l0,0h3l0,0h15v-18h3v-3h-3V401.9z M-249,428.9h-12v-3h-3v3h-9v-24h24V428.9z M-252,440.9h3v-3h-3V440.9z M-264,440.9h3v-6h-3V440.9z M-258,440.9h3v-3h-3V440.9z M-261,419.9h-2.9v3h2.9V419.9z M-246,440.9h3 v-3h-3V440.9z M-261,413.9h3v-3h-5.9v6h2.9V413.9z M-252,410.9h-3v3h3V410.9z M-237,419.9h3v-3h-3V419.9z M-240,410.9v3h6v-3H-240 z M-237,431.9h3v-3h-3V431.9z M-237,425.9h3v-3h-3V425.9z M-237,437.9h-3v3h6v-6h-3V437.9z"/></svg><svg height="39" viewBox="0 0 42 39" width="42" x="10" y="701"><path fill="#FAB531" d="M30,9V0L0.1,0L0,30l12,0l0,9l30,0V9L30,9z M3,27V3h24v6L12.1,9L12,27H3z M27,12v15H15V12H27z M39,36H15v-6	l15,0V12h9V36z"/></svg><svg height="39" viewBox="-276 402 42 39" width="42" x="10" y="750"><path fill="#fff" d="M-246,410.9v-9h-29.9l-0.1,30h12v9h30v-30H-246z M-273,428.9v-24h24v6h-14.9l-0.1,18H-273z M-249,413.9v15	h-12v-15H-249z M-237,437.9h-24v-6h15v-18h9V437.9z"/></svg><svg height="41" viewBox="0 0 36 41" width="35.3" x="10" y="799"><path fill="#2E3235" d="M0,9.4l0.1,0.4L0,8.9L0,9.4z M28.3,8h-20v3h20V8z M28.3,13h-20v3h20V13z M28.3,18h-20v3h20V18z M35.3,4 c0-2-1.9-4-4-4h-26c-2.1,0-4,2-4,4v34c0,2,1.9,3,4,3h13l3.3-3.3l0.1,0v-0.2l7.7-7.7l2.4-2.4l-0.1,0l3.4-3.4V4z M31.3,24h-9 c-2.1,0-4,2-4,4v8.1l-1,0.9h-12V4h26V24z"/></svg><svg height="41" viewBox="0 0 35 41" width="35" x="10" y="850"><path fill="#2E3235" d="M32,0H3C1.3,0,0,1.4,0,3v35c0,1.6,1.3,3,3,3h29c1.7,0,3-1.4,3-3V3C35,1.4,33.6,0,32,0z M21,37h-8v-3h8V37z M31,30H4V4h27V30z"/></svg></svg>