<svg xmlns="http://www.w3.org/2000/svg" width="42" height="39" viewBox="-276 401.9 42 39" enable-background="new -276 401.9 42 39"><path fill="#fff" d="M-273,410.9h-2.9v3h3v-3H-273z M-273,416.9h-3v3h3V416.9z M-273,422.9h-3v3h3V422.9z M-275.9,407.9h2.9v-3 h3v-3h-5.9V407.9z M-246,401.9h-3v6h3V401.9z M-252,401.9h-3v3h3V401.9z M-276,431.9h6v-3h-6V431.9z M-264,401.9h-3v3h3V401.9z M-258,401.9h-3v3h3V401.9z M-258,431.9h3v-3h-3V431.9z M-249,428.9h-3v3h6v-6h-3V428.9z M-249,422.9h3v-3h-3V422.9z M-246,410.9 L-246,410.9h-3l0,0h-14.9v18h-3.1v3h3v9h30v-30H-246z M-237,437.9h-24v-24h12v3h3v-3h9V437.9z"/></svg>