<svg xmlns="http://www.w3.org/2000/svg" width="43" height="40" viewBox="0 0 43 40"><path fill="#2E3235" d="M11,15.9c1,1,2.4,4.2,2.4,4.5c0,0,1,0,4.1-2.9c3.1-3,3.3-4.2,3.3-4.2c-0.3-0.1-3.8-1.6-4.8-2.6 c-1.3-1.3-1.8-3-1.6-4.6L9,0.5c-0.7-0.7-1.8-0.7-2.4,0l-6,5.8c-0.7,0.7-0.7,1.7,0,2.4L6,14.2C7.8,14,9.7,14.5,11,15.9z M24.9,26.4 L38.5,40l2.3-2.2L27.2,24.1L24.9,26.4z M42.3,6.1c0,0-4.5,4.4-5.6,5.5c-1.1,1.1-2.1,0.2-3.8-1.4c-1.6-1.6-2.6-2.6-1.5-3.7 C32.6,5.4,37.1,1,37.1,1s-0.7-0.7-1.7-0.7c-1.4,0.1-2.9,0.6-4.3,1.4c-2.4,1.3-4.8,3.1-5.6,4.8c-0.7,1.5-0.3,3.8,0,5.2l0,0 c0,0,0.4,1.1-0.4,1.8L4,33.9c-1.2,1.2-1.2,3.2,0,4.4c1.2,1.2,3.3,1.2,4.5,0l21.1-20.5c0.5-0.5,1.1-0.5,1.5-0.4 c1.6,0.5,4.2,0.8,5.7,0.1c1.7-0.8,3.3-2.7,4.9-5.5c0.8-1.4,1.3-2.9,1.4-4.3C43.1,6.8,42.3,6.1,42.3,6.1z"/></svg>