<svg xmlns="http://www.w3.org/2000/svg" width="154" height="65.5" viewBox="0 0 154 65.5"><path fill="#898989" d="M98.5,24.6h7.7c0.3-5-1.6-14.6-13.9-14.6c-9,0-15.5,5.4-15.5,16.6c0,1.5,0.1,9.4,0.1,14.3	c0,12.2,8.4,14.8,16.4,14.8c3.4,0,8.8-0.6,12.4-4.7V32.3H91.7v7.4H98v8C93.3,49.2,85,49.8,85,39c0-5.7,0-6.8,0-12.4	c0-7,2.8-9.6,6.6-9.6C95.7,17,98.5,19,98.5,24.6z"/><path fill="#898989" d="M120.7,55.1h-7.8V10.6h7.8V55.1z M120.7,55.1h-7.8V10.6h7.8V55.1z"/><path fill="#898989" d="M154,43.4c0-17.4-19.7-11.6-19.7-21.3c0-2.9,1.9-5.2,5.3-5.2c4.1,0,6.6,2.6,6.1,7.8h7.6	c0.6-5.1-1.3-14.6-13.4-14.6c-7.5,0-13.6,3.7-13.6,11.8c0,16.8,19.7,11.3,19.5,21.5c-0.1,3.7-2.8,5.5-6.2,5.5	c-3.7,0-6.7-2.3-6.2-8.7h-7.6c-0.6,9.1,3.4,15.6,14.1,15.6C149,55.7,154,50.8,154,43.4z"/><path fill="#898989" d="M59.7,14.2c1.5,2.3,2.3,5,2.3,8.1c0,11.8-12,20.9-19,26.9h18c2.8-4.8,4.4-10.5,4.4-16.5 C65.5,25.8,63.3,19.5,59.7,14.2z M29.7,51.4c14.1-12.2,22.7-20.5,22.7-28.5c0-3-1.1-6.7-6.2-6.7c-4,0-7.9,2.3-7.2,12.1h-8.2 C28.7,17,34.8,8,46.6,8c5.9,0,10.4,2.3,13,6C53.7,5.6,43.9,0,32.7,0C14.7,0,0,14.7,0,32.7c0,18.1,14.7,32.7,32.7,32.7 c7.8,0,14.9-2.7,20.5-7.2H29.8L29.7,51.4z"/></svg>