<svg xmlns="http://www.w3.org/2000/svg" width="47" height="46" viewBox="0 0 47 46"><path fill="#2E3235" d="M23.5,5.2l3,2.9c-0.1,0.1-0.3,0.2-0.4,0.4c-1.7,1.7-2.6,3.9-2.6,6.2c0,2.4,0.9,4.6,2.6,6.2	c1.7,1.6,4,2.6,6.4,2.6c2.4,0,4.7-0.9,6.4-2.6c0.1-0.1,0.3-0.3,0.4-0.4l2.4,2.3L23.5,40.7L5.3,23l4.9-4.8c1.1-1.1,1.5-2.6,1.1-4	c-0.4-1.4-1.6-2.5-3.1-2.9c-0.3-0.1-0.6-0.3-0.9-0.5c-0.4-0.4-0.6-0.9-0.6-1.5c0-0.5,0.2-1.1,0.6-1.5c0.4-0.4,0.9-0.6,1.5-0.6	c0.6,0,1.1,0.2,1.5,0.6c0.3,0.3,0.5,0.6,0.6,0.9c0.4,1.5,1.5,2.6,3,3c0.4,0.1,0.8,0.2,1.1,0.2c1.1,0,2.2-0.4,3-1.2L23.5,5.2 M23.5,0	c-0.4,0-0.8,0.1-1.1,0.4L15,7.7c-0.3-1.1-0.8-2-1.7-2.9C12.1,3.6,10.5,3,8.8,3C7.1,3,5.5,3.6,4.3,4.8C3.1,6,2.5,7.6,2.5,9.2	c0,1.7,0.7,3.2,1.9,4.4c0.8,0.8,1.8,1.4,2.9,1.6l-6.8,6.6C0.2,22.2,0,22.6,0,23c0,0.4,0.2,0.8,0.5,1.1l22,21.5	c0.3,0.3,0.7,0.5,1.1,0.5c0.4,0,0.8-0.2,1-0.5l22-21.5c0.3-0.3,0.5-0.7,0.5-1.1c0-0.4-0.2-0.8-0.5-1.1l-7.9-7.7	c-0.1-0.1-0.3-0.2-0.5-0.2c-0.1,0-0.2,0-0.3,0.1c-0.3,0.2-0.5,0.4-0.5,0.7c0,1.3-0.5,2.5-1.4,3.4c-0.9,0.9-2.1,1.4-3.4,1.4	c-1.3,0-2.5-0.5-3.4-1.4c-0.9-0.9-1.4-2-1.4-3.3c0-1.3,0.5-2.5,1.4-3.3c0.9-0.9,2.1-1.4,3.4-1.4h0.1c0.4,0,0.6-0.2,0.7-0.5	c0.1-0.3,0.1-0.6-0.2-0.8l-8.5-8.3C24.3,0.1,23.9,0,23.5,0L23.5,0z"/></svg>