<svg xmlns="http://www.w3.org/2000/svg" width="42" height="39" viewBox="-276 401.9 42 39" enable-background="new -276 401.9 42 39"><path fill="#FAB531" d="M-246,401.9h-29.9l-0.1,30h12l0,0h3l0,0h15v-18h3v-3h-3V401.9z M-249,428.9h-12v-3h-3v3h-9v-24h24V428.9z M-252,440.9h3v-3h-3V440.9z M-264,440.9h3v-6h-3V440.9z M-258,440.9h3v-3h-3V440.9z M-261,419.9h-2.9v3h2.9V419.9z M-246,440.9h3 v-3h-3V440.9z M-261,413.9h3v-3h-5.9v6h2.9V413.9z M-252,410.9h-3v3h3V410.9z M-237,419.9h3v-3h-3V419.9z M-240,410.9v3h6v-3H-240 z M-237,431.9h3v-3h-3V431.9z M-237,425.9h3v-3h-3V425.9z M-237,437.9h-3v3h6v-6h-3V437.9z"/></svg>