<svg xmlns="http://www.w3.org/2000/svg" width="48" height="48" viewBox="0 0 48 48"><path fill="#FFB62B" d="M6.1,24l5.8-11.6c0.2-0.3,0.1-0.7,0-1C11.7,11.2,11.3,11,11,11H7c-0.4,0-0.7,0.2-0.9,0.6l-6,12	c-0.1,0.3-0.1,0.6,0,0.9l6,12C6.3,36.8,6.6,37,7,37h4c0,0,0,0,0,0c0.6,0,1-0.4,1-1c0-0.2-0.1-0.4-0.2-0.6L6.1,24z M7.6,35L2.1,24	l5.5-11h1.8L4.1,23.6c-0.1,0.3-0.1,0.6,0,0.9L9.4,35H7.6z"/><path fill="#FFB62B" d="M47.9,23.6l-6-12C41.7,11.2,41.4,11,41,11h-4c-0.3,0-0.7,0.2-0.9,0.5c-0.2,0.3-0.2,0.7,0,1L41.9,24	l-5.8,11.6c-0.2,0.3-0.1,0.7,0,1c0.2,0.3,0.5,0.5,0.9,0.5h4c0.4,0,0.7-0.2,0.9-0.6l6-12C48,24.2,48,23.8,47.9,23.6z M40.4,35h-1.8	l5.3-10.6c0.1-0.3,0.1-0.6,0-0.9L38.6,13h1.8l5.5,11L40.4,35z"/><path fill="#FFB62B" d="M33,0.3C32.4,0.1,31.7,0,31.1,0c-1.6,0-2.8,0.7-3.2,1.9l-2.3,6.2c0,0,0,0,0,0l0,0L15,37.2c0,0,0,0,0,0	c-0.1,0.4-0.1,0.8-0.1,1.2L15,47c0,0.4,0.3,0.8,0.7,0.9c0.1,0,0.2,0.1,0.3,0.1c0.3,0,0.6-0.1,0.8-0.3l5.5-6.4	c0.4-0.3,0.7-0.7,0.8-1.1c0,0,0,0,0,0L35.9,4.8C36.5,3.2,35.1,1.1,33,0.3z M29.7,2.6c0.2-0.5,1.5-0.7,2.6-0.3	c1.3,0.5,1.9,1.5,1.8,1.9c0,0.1-0.3,0.3-0.8,0.4c-0.6,0.1-1.2,0.1-1.8-0.1c-0.5-0.2-1.1,0.1-1.3,0.6c-0.2,0.5,0.1,1.1,0.6,1.3	c0.5,0.2,1.2,0.3,1.8,0.3c0.2,0,0.4,0,0.6,0l-1.4,3.7c0,0,0,0,0,0c0,0.1-0.3,0.3-0.8,0.4c-0.6,0.1-1.2,0.1-1.8-0.1	c-1.1-0.4-1.8-1.6-1.8-1.9L29.7,2.6z M26.6,11.2c0.6,0.6,1.2,1.1,2,1.4c0.5,0.2,1.1,0.3,1.7,0.3c0.2,0,0.4,0,0.6,0l-9.6,26.4	l-0.4,0.4c-0.1,0.1-0.2,0.1-0.4,0.2c-0.3,0.1-1,0.2-1.9-0.1c-1-0.4-1.5-1.1-1.7-1.6l0-0.5L26.6,11.2z M16.9,41.2	c0.3,0.2,0.6,0.4,1,0.5c0.3,0.1,0.7,0.2,1.1,0.3l-2,2.4L16.9,41.2z"/></svg>