<svg xmlns="http://www.w3.org/2000/svg" width="259.7" height="49.4" viewBox="0 0 259.7 49.4"><path fill="#FFB62B" d="M13.9,42.6h8v-10H8.1L13.9,42.6z M5.8,28.6h16.1v-10H0L5.8,28.6z M224.9,33.6v9h21l5.8-10h-18.4 C229.9,33.4,226.7,33.6,224.9,33.6z M245.9,18.6c-0.5,4.6-2.3,7.8-4.7,10h12.8l5.8-10H245.9z"/><g fill="#FFB62B"><path d="M59.4,27.1V10.4h-0.1l-0.5,3.8l-7,34.4h-8.3l-7-34.4l-0.5-3.8h-0.1v16.7l-9.5-6.2V0h14.8l6.4,36.4L54.1,0 h14.8v20.8L59.4,27.1z M35.9,48.6h-9.5V23.8l9.5,6.2V48.6z"/><path d="M68.9,48.6h-9.5V30l9.5-6.2V48.6z"/><path d="M91.8,22.6c0-6.1-2.6-9.6-5.9-11.1c0.5-0.1,1.5-0.1,2.3-0.1c8.6,0,13.8,3,13.7,12.9l-0.1,12.5 c0,4.6-0.1,8.4,0.5,11.7h-9.2l-0.3-4.7c-1.6,3.8-4.7,5.5-9.1,5.5c-5.8,0-9.7-3.6-9.7-10.1v-0.7c0-5.9,4.2-8.3,12.5-11.5l3.1-1.2 l0.1,5.4l-0.9,0.3c-3.6,1.4-4.7,2.9-4.7,5.8v0.9c0,2.7,0.8,4.8,3.4,4.8c3.1,0,4.4-2.4,4.4-8.6L91.8,22.6z"/><path d="M87.8,17.7c-3.1,0-4.1,2-4.1,5.7V24h-9.1v-0.6c0-5.2,3-9.4,8.3-11.2c2.8,0.9,5.1,3.1,5.6,5.5H87.8z"/><path d="M128.5,29l9,19.6h-9.8l-5.2-11.3L128.5,29z"/><path d="M117.8,39.7v8.8h-10.3V0h10.3v26.7l10-14.2h9.4L117.8,39.7z"/><path d="M153.2,17.8c-3.6,0-4.8,2.2-4.8,7.5v0.6h9.5v-0.9c0-6.5-2.3-11.5-6.4-13.6c0.5-0.1,0.9-0.1,1.4-0.1 c10.9,0,14.4,5.8,14.4,18.1v1.9h-19v4c0,7.9,2.5,11.9,6.3,13.9c-0.5,0.1-1.2,0.1-2,0.1c-10,0-14.5-5.8-14.5-16.1v-6 c0-8.8,3.5-14,10-15.4c2.5,0.8,5.2,3.1,6,5.9H153.2z M166.9,36.7v-0.3h-9.6v0.3c0,4.8-1.7,6.1-4.4,6.1h-0.9 c0.5,2.9,3.4,5.3,5.6,6.1C162.2,47.8,166.9,44.6,166.9,36.7z"/><path d="M172.2,29.4V0h10.7v29.4c0,8.6-0.3,12.6,5.4,12.6h0.7c-0.8,3.3-3.6,5.6-6.8,7 C173.9,47.7,172.2,42.5,172.2,29.4z"/><path d="M193.1,31.2V0h10.7v28.9c0,16-2.3,20.5-15.8,20.5c-0.8,0-1.5,0-2.2-0.1C189.6,47.4,193.2,43.1,193.1,31.2z"/><path d="M219.4,0h4.8c10.5,0,17.5,2.1,17.5,14.5s-7,14.9-17.5,14.9H221v19.2h-10.7V0h6.1l4.6,7.1v15.1h1.8 c6,0,7.5-1,7.5-7.5s-1.7-7.4-6.4-7.6L219.4,0z"/></g></svg>