<?xml version="1.0" encoding="utf-8"?>
<!-- Generator: Adobe Illustrator 18.0.0, SVG Export Plug-In . SVG Version: 6.00 Build 0)  -->
<!DOCTYPE svg PUBLIC "-//W3C//DTD SVG 1.1//EN" "http://www.w3.org/Graphics/SVG/1.1/DTD/svg11.dtd">
<svg version="1.1" id="Layer_1" xmlns="http://www.w3.org/2000/svg" xmlns:xlink="http://www.w3.org/1999/xlink" x="0px" y="0px"
	 width="10px" height="10px" viewBox="0 0 10 10" enable-background="new 0 0 10 10" xml:space="preserve">
<g>
	<path fill="#FAB43C" d="M-502,3h-3V1c0-0.55-0.45-1-1-1h-1v1h1v2h-8c-0.55,0-1,0.45-1,1v9h-1v1h1v2c0,0.55,0.45,1,1,1h12
		c0.55,0,1-0.45,1-1V4C-501,3.45-501.45,3-502,3z M-502,16h-12v-2v-1V4h8h1h3V16z"/>
	<rect x="-515" fill="#FAB43C" width="3" height="1"/>
	<rect x="-511" fill="#FAB43C" width="3" height="1"/>
	<rect x="-519" y="3" fill="#FAB43C" width="1" height="3"/>
	<path fill="#FAB43C" d="M-518,1h2V0h-2c-0.55,0-1,0.45-1,1v1h1V1z"/>
	<rect x="-519" y="7" fill="#FAB43C" width="1" height="3"/>
	<path fill="#FAB43C" d="M-518,11h-1v2c0,0.55,0.45,1,1,1h1v-1h-1V11z"/>
</g>
<g>
	<rect x="-477" y="6" fill="#FAB43C" width="1" height="3"/>
	<path fill="#FAB43C" d="M-476,4h2V3h-2c-0.55,0-1,0.45-1,1v1h1V4z"/>
	<polygon fill="#FAB43C" points="-470,3 -473,3 -473,3.167 -473,3.833 -473,4 -470,4 	"/>
	<path fill="#FAB43C" d="M-466,3h-1V1c0-0.55-0.45-1-1-1h-12c-0.55,0-1,0.45-1,1v12c0,0.55,0.45,1,1,1h3v2c0,0.55,0.45,1,1,1h1v-1
		h-1v-2v-1v-3h-1v3h-3V1h12v2h-1v1h1h1h1V3z"/>
	<rect x="-464" y="7" fill="#FAB43C" width="1" height="3"/>
	<rect x="-464" y="11" fill="#FAB43C" width="1" height="3"/>
	<rect x="-474" y="16" fill="#FAB43C" width="3" height="1"/>
	<path fill="#FAB43C" d="M-464,3h-1v1h1v2h1V4C-463,3.45-463.45,3-464,3z"/>
	<path fill="#FAB43C" d="M-464,16h-2v1h2c0.55,0,1-0.45,1-1v-1h-1V16z"/>
	<rect x="-470" y="16" fill="#FAB43C" width="3" height="1"/>
</g>
<path fill="#FAB43C" d="M-426,3h-3V1c0-0.55-0.45-1-1-1h-12c-0.55,0-1,0.45-1,1v12c0,0.55,0.45,1,1,1h3v2c0,0.55,0.45,1,1,1h12
	c0.55,0,1-0.45,1-1V4C-425,3.45-425.45,3-426,3z M-442,13V1h12v2h-8c-0.55,0-1,0.45-1,1v9H-442z M-430,4v9h-8V4H-430z M-426,16h-12
	v-2h8c0.55,0,1-0.45,1-1V4h3V16z"/>
<path fill="#FAB43C" d="M-388,3h-3V1c0-0.55-0.45-1-1-1h-12c-0.55,0-1,0.45-1,1v12c0,0.55,0.45,1,1,1h3v2c0,0.55,0.45,1,1,1h12
	c0.55,0,1-0.45,1-1V4C-387,3.45-387.45,3-388,3z M-404,13V1h12v2h-8c-0.55,0-1,0.45-1,1v9H-404z M-388,16h-12v-2h8
	c0.55,0,1-0.45,1-1V4h3V16z"/>
<path fill="#FFFFFF" d="M-352,1v14h-14V1H-352 M-352,0h-14c-0.55,0-1,0.45-1,1v14c0,0.55,0.45,1,1,1h14c0.55,0,1-0.45,1-1V1
	C-351,0.45-351.45,0-352,0L-352,0z"/>
<rect x="-365" y="2" fill="#FFFFFF" width="12" height="12"/>
<path fill="#FFFFFF" d="M-316,1v14h-14V1H-316 M-316,0h-14c-0.55,0-1,0.45-1,1v14c0,0.55,0.45,1,1,1h14c0.55,0,1-0.45,1-1V1
	C-315,0.45-315.45,0-316,0L-316,0z"/>
<rect x="-323" y="2" fill="#FFFFFF" width="3" height="3"/>
<rect x="-326" y="5" fill="#FFFFFF" width="3" height="3"/>
<rect x="-323" y="8" fill="#FFFFFF" width="3" height="3"/>
<rect x="-329" y="8" fill="#FFFFFF" width="3" height="3"/>
<rect x="-329" y="2" fill="#FFFFFF" width="3" height="3"/>
<g>
	<rect x="-326" y="11" fill="#FFFFFF" width="3" height="3"/>
</g>
<rect x="-320" y="5" fill="#FFFFFF" width="3" height="3"/>
<rect x="-320" y="11" fill="#FFFFFF" width="3" height="3"/>
<path fill="#EEEEEE" d="M-278.28,2.475l-3.784-2.396c-0.176-0.105-0.386-0.105-0.561,0l-3.815,2.38l-3.56-2.38
	c-0.175-0.105-0.825-0.105-1,0l-3.72,2.555c-0.175,0.105-0.28,0.315-0.28,0.525V13.38c0,0.246,0.105,0.421,0.28,0.525
	c0.21,0.105,0.42,0.105,0.596,0l3.78-2.38l3.624,2.38c0.175,0.105,0.385,0.105,0.595,0l3.78-2.38l3.47,2.221
	c0.105,0.07,0.21,0.105,0.315,0.105c0.104,0,0.175-0.035,0.279-0.105c0.176-0.104,0.28-0.279,0.28-0.525V3
	C-278,2.79-278.104,2.58-278.28,2.475z M-291,10.51l-3,1.82V3.474l3-1.82V10.51z M-287,12.331l-3-1.82V1.654l3,1.82V12.331z
	 M-283,10.51l-3,1.82V3.474l3-1.82V10.51z M-279,12.331l-3-1.82V1.654l3,1.82V12.331z"/>
<rect x="-258" fill="#FFFFFF" width="16" height="1.995"/>
<rect x="-258" y="5" fill="#FFFFFF" width="16" height="1.995"/>
<rect x="-258" y="10.005" fill="#FFFFFF" width="16" height="1.995"/>
<g>
	<path fill="#666666" d="M-212.663,8.761l-0.553,0.552c-0.239,0.216-0.6,0.216-0.815,0l-2.28-2.28
		c-0.552,0.312-1.2,0.504-1.872,0.504c-2.04,0-3.816-1.776-3.816-3.816c0-2.064,1.656-3.72,3.696-3.72
		c2.064,0,3.84,1.776,3.84,3.816c0,0.72-0.191,1.368-0.552,1.944l2.28,2.256C-212.52,8.257-212.447,8.521-212.663,8.761z
		 M-218.184,6.409c1.416,0,2.568-1.152,2.568-2.592c0-1.416-1.272-2.664-2.688-2.664s-2.568,1.152-2.568,2.568
		S-219.6,6.409-218.184,6.409z"/>
</g>
<g>
	<path fill="#99999A" d="M-185.601,3.679L-192,7.359V0L-185.601,3.679z"/>
</g>
<g>
	<path fill="#99999A" d="M-161.32,6.399L-165,0h7.359L-161.32,6.399z"/>
</g>
<g>
	<path fill="#333333" d="M-127.001,4.973c0.044,2.794-2.2,5.104-4.995,5.149c-2.794,0.021-5.082-2.201-5.127-4.995
		c-0.043-2.794,2.201-5.105,4.995-5.127C-129.334-0.043-127.045,2.179-127.001,4.973z M-130.785,7.064l-0.198-0.264
		c-0.353,0.264-0.704,0.396-0.792,0.396s-0.133-0.11-0.045-0.418l0.463-1.76c0.176-0.638,0.109-1.056-0.242-1.056
		c-0.418,0-1.387,0.418-2.244,1.144l0.176,0.286c0.264-0.176,0.727-0.374,0.814-0.374s0.088,0.11,0,0.374l-0.396,1.672
		c-0.242,0.946,0.021,1.144,0.374,1.144S-131.621,7.9-130.785,7.064z M-132.523,2.487c-0.022,0.396,0.22,0.66,0.703,0.66
		c0.572,0,0.925-0.396,0.925-0.836c0-0.33-0.154-0.638-0.66-0.638C-132.238,1.673-132.523,2.157-132.523,2.487z"/>
</g>
<linearGradient id="SVGID_1_" gradientUnits="userSpaceOnUse" x1="-63" y1="-0.5" x2="-63" y2="15.5" gradientTransform="matrix(4.489700e-11 -1 1 4.489700e-11 -71.5 -55.5)">
	<stop  offset="0" style="stop-color:#000000"/>
	<stop  offset="1" style="stop-color:#222222"/>
</linearGradient>
<path opacity="0.5" fill-rule="evenodd" clip-rule="evenodd" fill="url(#SVGID_1_)" d="M-56,7.96L-63.13,15h-5.37
	c-1.654,0-3.5-1.846-3.5-3.5v-9c0-1.654,1.846-2.5,3.5-2.5h5.37L-56,6.04V7.96z"/>
<linearGradient id="SVGID_2_" gradientUnits="userSpaceOnUse" x1="-63" y1="13.5" x2="-63" y2="-0.5" gradientTransform="matrix(4.489700e-11 -1 1 4.489700e-11 -71.5 -55.5)">
	<stop  offset="0" style="stop-color:#555555"/>
	<stop  offset="1" style="stop-color:#888888"/>
</linearGradient>
<path fill-rule="evenodd" clip-rule="evenodd" fill="url(#SVGID_2_)" d="M-72,12V3c0-1.105,0.895-2,2-2h5l7,6v1l-7,6h-5
	C-71.105,14-72,13.104-72,12z"/>
<linearGradient id="SVGID_3_" gradientUnits="userSpaceOnUse" x1="-99.5" y1="-2.028173e-10" x2="-99.5" y2="16">
	<stop  offset="0" style="stop-color:#000000"/>
	<stop  offset="1" style="stop-color:#222222"/>
</linearGradient>
<path opacity="0.5" fill-rule="evenodd" clip-rule="evenodd" fill="url(#SVGID_3_)" d="M-100.46,16L-107,8.37V3c0-1.654,1.346-3,3-3
	h9c1.654,0,3,1.346,3,3v5.37L-98.54,16H-100.46z"/>
<linearGradient id="SVGID_4_" gradientUnits="userSpaceOnUse" x1="-99.5" y1="14" x2="-99.5" y2="-1.894568e-08">
	<stop  offset="0" style="stop-color:#555555"/>
	<stop  offset="1" style="stop-color:#888888"/>
</linearGradient>
<path fill-rule="evenodd" clip-rule="evenodd" fill="url(#SVGID_4_)" d="M-104,0h9c1.105,0,2,0.895,2,2v5l-6,7h-1l-6-7V2
	C-106,0.895-105.104,0-104,0z"/>
<rect x="-36" fill="#FFFFFF" width="16" height="16"/>
<rect x="-36" y="8" fill="#CCCCCC" width="8" height="8"/>
<rect x="-28" fill="#CCCCCC" width="8" height="8"/>
<g>
	<path fill="#666666" d="M9.999,4.973c0.044,2.794-2.2,5.104-4.995,5.149C2.21,10.144-0.078,7.922-0.123,5.128
		c-0.043-2.794,2.201-5.105,4.995-5.127C7.666-0.043,9.955,2.179,9.999,4.973z M6.215,7.064L6.017,6.799
		C5.664,7.064,5.313,7.195,5.225,7.195S5.092,7.086,5.18,6.777l0.463-1.76c0.176-0.638,0.109-1.056-0.242-1.056
		c-0.418,0-1.387,0.418-2.244,1.144l0.176,0.286c0.264-0.176,0.727-0.374,0.814-0.374s0.088,0.11,0,0.374L3.75,7.064
		C3.508,8.009,3.772,8.208,4.124,8.208S5.379,7.9,6.215,7.064z M4.477,2.487c-0.022,0.396,0.22,0.66,0.703,0.66
		c0.572,0,0.925-0.396,0.925-0.836c0-0.33-0.154-0.638-0.66-0.638C4.762,1.673,4.477,2.157,4.477,2.487z"/>
</g>
</svg>
