<?xml version="1.0" encoding="utf-8"?>
<!-- Generator: Adobe Illustrator 18.0.0, SVG Export Plug-In . SVG Version: 6.00 Build 0)  -->
<!DOCTYPE svg PUBLIC "-//W3C//DTD SVG 1.1//EN" "http://www.w3.org/Graphics/SVG/1.1/DTD/svg11.dtd">
<svg version="1.1" id="Layer_1" xmlns="http://www.w3.org/2000/svg" xmlns:xlink="http://www.w3.org/1999/xlink" x="0px" y="0px"
	 width="17px" height="14px" viewBox="0 0 17 14" enable-background="new 0 0 17 14" xml:space="preserve">
<path fill="#EEEEEE" d="M16.72,2.475l-3.784-2.396c-0.176-0.105-0.386-0.105-0.561,0L8.56,2.459L5,0.079
	c-0.175-0.105-0.825-0.105-1,0L0.28,2.634C0.105,2.739,0,2.949,0,3.159V13.38c0,0.246,0.105,0.421,0.28,0.525
	c0.21,0.105,0.42,0.105,0.596,0l3.78-2.38l3.624,2.38c0.175,0.105,0.385,0.105,0.595,0l3.78-2.38l3.47,2.221
	c0.105,0.07,0.21,0.105,0.315,0.105c0.104,0,0.175-0.035,0.279-0.105c0.176-0.104,0.28-0.279,0.28-0.525V3
	C17,2.79,16.896,2.58,16.72,2.475z M4,10.51l-3,1.82V3.474l3-1.82V10.51z M8,12.331l-3-1.82V1.654l3,1.82V12.331z M12,10.51l-3,1.82
	V3.474l3-1.82V10.51z M16,12.331l-3-1.82V1.654l3,1.82V12.331z"/>
</svg>
