<?xml version="1.0" encoding="utf-8"?>
<!-- Generator: Adobe Illustrator 18.0.0, SVG Export Plug-In . SVG Version: 6.00 Build 0)  -->
<!DOCTYPE svg PUBLIC "-//W3C//DTD SVG 1.1//EN" "http://www.w3.org/Graphics/SVG/1.1/DTD/svg11.dtd">
<svg version="1.1" id="Layer_1" xmlns="http://www.w3.org/2000/svg" xmlns:xlink="http://www.w3.org/1999/xlink" x="0px" y="0px"
	 width="18px" height="17px" viewBox="0 0 18 17" enable-background="new 0 0 18 17" xml:space="preserve">
<path fill="#FAB43C" d="M17,3h-3V1c0-0.55-0.45-1-1-1H1C0.45,0,0,0.45,0,1v12c0,0.55,0.45,1,1,1h3v2c0,0.55,0.45,1,1,1h12
	c0.55,0,1-0.45,1-1V4C18,3.45,17.55,3,17,3z M1,13V1h12v2H5C4.45,3,4,3.45,4,4v9H1z M17,16H5v-2h8c0.55,0,1-0.45,1-1V4h3V16z"/>
</svg>
