<?xml version="1.0" encoding="utf-8"?>
<!-- Generator: Adobe Illustrator 18.0.0, SVG Export Plug-In . SVG Version: 6.00 Build 0)  -->
<!DOCTYPE svg PUBLIC "-//W3C//DTD SVG 1.1//EN" "http://www.w3.org/Graphics/SVG/1.1/DTD/svg11.dtd">
<svg version="1.1" id="Layer_1" xmlns="http://www.w3.org/2000/svg" xmlns:xlink="http://www.w3.org/1999/xlink" x="0px" y="0px"
	 width="10px" height="10px" viewBox="0 0 10 10" enable-background="new 0 0 10 10" xml:space="preserve">
<g>
	<path fill="#666666" d="M9.999,4.973c0.044,2.794-2.2,5.104-4.995,5.149C2.21,10.144-0.078,7.922-0.123,5.128
		c-0.043-2.794,2.201-5.105,4.995-5.127C7.666-0.043,9.955,2.179,9.999,4.973z M6.215,7.064L6.017,6.799
		C5.664,7.064,5.313,7.195,5.225,7.195S5.092,7.086,5.18,6.777l0.463-1.76c0.176-0.638,0.109-1.056-0.242-1.056
		c-0.418,0-1.387,0.418-2.244,1.144l0.176,0.286c0.264-0.176,0.727-0.374,0.814-0.374s0.088,0.11,0,0.374L3.75,7.064
		C3.508,8.009,3.772,8.208,4.124,8.208S5.379,7.9,6.215,7.064z M4.477,2.487c-0.022,0.396,0.22,0.66,0.703,0.66
		c0.572,0,0.925-0.396,0.925-0.836c0-0.33-0.154-0.638-0.66-0.638C4.762,1.673,4.477,2.157,4.477,2.487z"/>
</g>
</svg>
