<?xml version="1.0" encoding="utf-8"?>
<!-- Generator: Adobe Illustrator 18.1.0, SVG Export Plug-In . SVG Version: 6.00 Build 0)  -->
<svg version="1.1" id="Layer_1" xmlns="http://www.w3.org/2000/svg" xmlns:xlink="http://www.w3.org/1999/xlink" x="0px" y="0px"
	 width="16px" height="16px" viewBox="0 0 16 16" enable-background="new 0 0 16 16" xml:space="preserve">
<path fill="#FFFFFF" d="M8,1c3.866,0,7,3.134,7,7s-3.134,7-7,7s-7-3.134-7-7S4.134,1,8,1 M8,0C3.589,0,0,3.589,0,8s3.589,8,8,8
	s8-3.589,8-8S12.411,0,8,0L8,0z"/>
<circle fill="#FFFFFF" cx="5" cy="6" r="1"/>
<circle fill="#FFFFFF" cx="11" cy="6" r="1"/>
<path fill="#FFFFFF" d="M11.839,9c-0.468,2-2,2.938-3.839,2.938S4.629,11,4.161,9H3.119C3.608,11,5.608,12.938,8,12.938
	S12.392,11,12.881,9H11.839z"/>
</svg>
