<?xml version="1.0" encoding="utf-8"?>
<!-- Generator: Adobe Illustrator 18.0.0, SVG Export Plug-In . SVG Version: 6.00 Build 0)  -->
<!DOCTYPE svg PUBLIC "-//W3C//DTD SVG 1.1//EN" "http://www.w3.org/Graphics/SVG/1.1/DTD/svg11.dtd">
<svg version="1.1" id="Layer_1" xmlns="http://www.w3.org/2000/svg" xmlns:xlink="http://www.w3.org/1999/xlink" x="0px" y="0px"
	 width="10px" height="10px" viewBox="0 0 10 10" enable-background="new 0 0 10 10" xml:space="preserve">
<g>
	<path fill="#666666" d="M9.337,8.761L8.784,9.313c-0.239,0.216-0.6,0.216-0.815,0l-2.28-2.28c-0.552,0.312-1.2,0.504-1.872,0.504
		C1.776,7.537,0,5.761,0,3.72C0,1.656,1.656,0,3.696,0c2.064,0,3.84,1.776,3.84,3.816c0,0.72-0.191,1.368-0.552,1.944l2.28,2.256
		C9.48,8.257,9.553,8.521,9.337,8.761z M3.816,6.409c1.416,0,2.568-1.152,2.568-2.592c0-1.416-1.272-2.664-2.688-2.664
		S1.128,2.304,1.128,3.72S2.4,6.409,3.816,6.409z"/>
</g>
</svg>
