<svg width="10" height="10" viewBox="0 0 10 10">
    <path fill="currentColor" d="M9.999 4.913c.044 2.76-2.173 5.042-4.934 5.087-2.76.021-5.02-2.174-5.065-4.934-.042-2.761 2.174-5.043 4.934-5.065 2.761-.044 5.022 2.151 5.065 4.912zm-3.738 2.065l-.196-.261c-.348.261-.695.391-.782.391-.087 0-.131-.108-.044-.413l.457-1.739c.174-.63.108-1.043-.239-1.043-.413 0-1.37.413-2.217 1.13l.174.283c.26-.174.718-.369.805-.369.087 0 .087.109 0 .369l-.393 1.652c-.239.934.021 1.13.369 1.13.349 0 1.241-.304 2.066-1.13zm-1.717-4.521c-.022.391.217.652.695.652.565 0 .914-.391.914-.826 0-.326-.152-.63-.652-.63-.675 0-.957.478-.957.804z" />
</svg>
